<svg xmlns="http://www.w3.org/2000/svg" viewBox="0 0 840 180" role="img" aria-labelledby="logoWordmarkTitle logoWordmarkDesc">
  <title id="logoWordmarkTitle">IPORDISE logo</title>
  <desc id="logoWordmarkDesc">IPORDISE luxury perfume wordmark with emblem and subtitle Maison de Parfum.</desc>
  <defs>
    <linearGradient id="wordmarkGold" x1="50" y1="20" x2="780" y2="160" gradientUnits="userSpaceOnUse">
      <stop offset="0" stop-color="#fff4cc"/>
      <stop offset="0.35" stop-color="#dfb35b"/>
      <stop offset="0.7" stop-color="#c58c2b"/>
      <stop offset="1" stop-color="#fff0b3"/>
    </linearGradient>
  </defs>
  <rect width="840" height="180" rx="32" fill="#0f0f12"/>
  <rect x="12" y="12" width="816" height="156" rx="24" fill="none" stroke="rgba(255,255,255,0.08)"/>
  <g transform="translate(28 20)">
    <rect x="0" y="0" width="140" height="140" rx="34" fill="#17171b" stroke="url(#wordmarkGold)" stroke-width="4"/>
    <circle cx="70" cy="70" r="46" fill="none" stroke="url(#wordmarkGold)" stroke-width="2" opacity="0.4"/>
    <path d="M34 32h72v14H78v62H62V46H34V32Zm26 80h18c6.8 0 12 1.5 15.7 4.6 3.7 3.1 5.5 7.8 5.5 13.9 0 6.3-2 11.4-6.1 15.2-4.1 3.8-9.6 5.7-16.4 5.7H44v-14h33.2c2.7 0 4.8-.6 6.1-1.9 1.3-1.2 1.9-2.9 1.9-4.9s-.7-3.7-2.2-4.8c-1.5-1.1-3.8-1.7-6.9-1.7H60v-12.1Z" fill="url(#wordmarkGold)"/>
  </g>
  <g fill="url(#wordmarkGold)">
    <text x="204" y="84" font-size="62" font-weight="700" letter-spacing="10" font-family="Playfair Display, Georgia, serif">IPORDISE</text>
    <text x="206" y="125" font-size="20" letter-spacing="7" font-family="Inter, Arial, sans-serif">MAISON DE PARFUM</text>
  </g>
</svg>