<svg xmlns="http://www.w3.org/2000/svg" viewBox="0 0 256 256" role="img" aria-labelledby="logoMarkTitle logoMarkDesc">
  <title id="logoMarkTitle">IPORDISE mark</title>
  <desc id="logoMarkDesc">A luxury perfume brand mark with a gold framed monogram on a dark background.</desc>
  <defs>
    <linearGradient id="logoMarkBg" x1="24" y1="20" x2="226" y2="236" gradientUnits="userSpaceOnUse">
      <stop offset="0" stop-color="#231814"/>
      <stop offset="1" stop-color="#09090b"/>
    </linearGradient>
    <linearGradient id="logoMarkGold" x1="54" y1="44" x2="206" y2="214" gradientUnits="userSpaceOnUse">
      <stop offset="0" stop-color="#f7e3a4"/>
      <stop offset="0.45" stop-color="#d6a647"/>
      <stop offset="1" stop-color="#fff2c4"/>
    </linearGradient>
  </defs>
  <rect x="12" y="12" width="232" height="232" rx="58" fill="url(#logoMarkBg)"/>
  <rect x="30" y="30" width="196" height="196" rx="44" fill="none" stroke="url(#logoMarkGold)" stroke-width="6" opacity="0.95"/>
  <path d="M85 70h86v18h-34v82h-18V88H85V70Zm33 104h20c7.5 0 13.3 1.8 17.3 5.4 4 3.6 6 8.8 6 15.5 0 7-2.2 12.6-6.6 16.9-4.4 4.2-10.3 6.3-17.7 6.3H97v-18h40.2c3.1 0 5.4-.7 6.9-2.2 1.5-1.5 2.2-3.5 2.2-6 0-2.6-.8-4.5-2.5-5.9-1.7-1.4-4.2-2-7.5-2H118v-10Z" fill="url(#logoMarkGold)"/>
  <circle cx="128" cy="128" r="78" fill="none" stroke="url(#logoMarkGold)" stroke-width="2" opacity="0.25"/>
</svg>